<svg width="20" height="20" viewBox="0 0 20 20" fill="none" xmlns="http://www.w3.org/2000/svg">
<g id="Frame" clip-path="url(#clip0_1897_1689)">
<g id="Group">
<path id="Vector" d="M9.67133 1.95165C9.76229 1.87262 9.87874 1.8291 9.99924 1.8291C10.1197 1.8291 10.2362 1.87262 10.3272 1.95165L11.9505 3.36165C12.0011 3.40561 12.0599 3.43896 12.1236 3.45971C12.1873 3.48047 12.2546 3.48821 12.3213 3.48248L14.4647 3.29582C14.5847 3.28551 14.7043 3.31887 14.8017 3.38975C14.8991 3.46064 14.9676 3.56429 14.9947 3.68165L15.4797 5.77665C15.4946 5.84212 15.5226 5.9039 15.562 5.9583C15.6014 6.01271 15.6513 6.05863 15.7088 6.09332L17.5522 7.20165C17.6553 7.26376 17.7326 7.361 17.7698 7.47551C17.807 7.59002 17.8016 7.71411 17.7547 7.82498L16.9147 9.80498C16.8885 9.86667 16.8751 9.93299 16.8751 9.99998C16.8751 10.067 16.8885 10.1333 16.9147 10.195L17.7547 12.175C17.8018 12.286 17.8073 12.4102 17.7701 12.5249C17.7329 12.6396 17.6555 12.737 17.5522 12.7991L15.7088 13.9075C15.6514 13.9421 15.6015 13.9879 15.5622 14.0421C15.5228 14.0964 15.4947 14.158 15.4797 14.2233L14.9947 16.3183C14.9676 16.4357 14.8991 16.5393 14.8017 16.6102C14.7043 16.6811 14.5847 16.7145 14.4647 16.7041L12.3213 16.5175C12.2546 16.5116 12.1874 16.5192 12.1237 16.5399C12.06 16.5605 12.0011 16.5937 11.9505 16.6375L10.3263 18.0483C10.2354 18.1273 10.1189 18.1709 9.99841 18.1709C9.87791 18.1709 9.76146 18.1273 9.67049 18.0483L8.04716 16.6375C7.99653 16.5937 7.93762 16.5605 7.87392 16.5399C7.81022 16.5192 7.74303 16.5116 7.67633 16.5175L5.53299 16.7041C5.41299 16.7145 5.29331 16.6811 5.19594 16.6102C5.09857 16.5393 5.03005 16.4357 5.00299 16.3183L4.51799 14.2233C4.50302 14.1578 4.47501 14.0961 4.43564 14.0417C4.39626 13.9873 4.34633 13.9413 4.28883 13.9066L2.44549 12.7983C2.34235 12.7362 2.26507 12.639 2.22787 12.5245C2.19067 12.4099 2.19604 12.2859 2.24299 12.175L3.08299 10.195C3.10912 10.1333 3.12259 10.067 3.12259 9.99998C3.12259 9.93299 3.10912 9.86667 3.08299 9.80498L2.24299 7.82498C2.19581 7.71401 2.19032 7.58973 2.22753 7.47503C2.26474 7.36033 2.34215 7.26295 2.44549 7.20082L4.28883 6.09248C4.34625 6.05789 4.39612 6.0121 4.43549 5.95784C4.47486 5.90359 4.50292 5.84197 4.51799 5.77665L5.00299 3.68165C5.03005 3.56429 5.09857 3.46064 5.19594 3.38975C5.29331 3.31887 5.41299 3.28551 5.53299 3.29582L7.67633 3.48248C7.74308 3.48821 7.81031 3.48047 7.87401 3.45971C7.93772 3.43896 7.9966 3.40561 8.04716 3.36165L9.67133 1.95165Z" stroke="#E7E7E7" stroke-width="1.5"/>
<path id="Vector_2" d="M7.5 10.8335L9.16667 12.5002L13.3333 8.3335" stroke="#E7E7E7" stroke-width="1.5" stroke-linecap="round" stroke-linejoin="round"/>
</g>
</g>
<defs>
<clipPath id="clip0_1897_1689">
<rect width="20" height="20" fill="white"/>
</clipPath>
</defs>
</svg>
