<svg width="20" height="22" viewBox="0 0 20 22" fill="none" xmlns="http://www.w3.org/2000/svg">
<g id="Group">
<path id="Vector" d="M15 12H10V7M3 2.5L5 1M17 2.5L15 1" stroke="white" stroke-opacity="0.8" stroke-width="1.5" stroke-linecap="round" stroke-linejoin="round"/>
<path id="Vector_2" d="M10 21C11.1819 21 12.3522 20.7672 13.4442 20.3149C14.5361 19.8626 15.5282 19.1997 16.364 18.364C17.1997 17.5282 17.8626 16.5361 18.3149 15.4442C18.7672 14.3522 19 13.1819 19 12C19 10.8181 18.7672 9.64778 18.3149 8.55585C17.8626 7.46392 17.1997 6.47177 16.364 5.63604C15.5282 4.80031 14.5361 4.13738 13.4442 3.68508C12.3522 3.23279 11.1819 3 10 3C7.61305 3 5.32387 3.94821 3.63604 5.63604C1.94821 7.32387 1 9.61305 1 12C1 14.3869 1.94821 16.6761 3.63604 18.364C5.32387 20.0518 7.61305 21 10 21Z" stroke="white" stroke-opacity="0.8" stroke-width="1.5" stroke-linecap="round" stroke-linejoin="round"/>
</g>
</svg>
