<svg width="9" height="13" viewBox="0 0 9 13" fill="none" xmlns="http://www.w3.org/2000/svg">
<path id="Vector" d="M7.5 12.0398C7.10218 12.0398 6.72064 11.9129 6.43934 11.6871C6.15804 11.4613 6 11.1551 6 10.8358C6 10.5165 6.15804 10.2102 6.43934 9.98444C6.72064 9.75865 7.10218 9.6318 7.5 9.6318C7.89782 9.6318 8.27936 9.75865 8.56066 9.98444C8.84196 10.2102 9 10.5165 9 10.8358C9 11.1551 8.84196 11.4613 8.56066 11.6871C8.27936 11.9129 7.89782 12.0398 7.5 12.0398ZM7.5 7.22385C7.10218 7.22385 6.72064 7.09701 6.43934 6.87122C6.15804 6.64543 6 6.33919 6 6.01988C6 5.70056 6.15804 5.39433 6.43934 5.16854C6.72064 4.94275 7.10218 4.8159 7.5 4.8159C7.89782 4.8159 8.27936 4.94275 8.56066 5.16854C8.84196 5.39433 9 5.70056 9 6.01988C9 6.33919 8.84196 6.64543 8.56066 6.87122C8.27936 7.09701 7.89782 7.22385 7.5 7.22385ZM1.5 12.0398C1.10218 12.0398 0.720645 11.9129 0.43934 11.6871C0.158036 11.4613 0 11.1551 0 10.8358C0 10.5165 0.158036 10.2102 0.43934 9.98444C0.720645 9.75865 1.10218 9.6318 1.5 9.6318C1.89782 9.6318 2.27936 9.75865 2.56066 9.98444C2.84196 10.2102 3 10.5165 3 10.8358C3 11.1551 2.84196 11.4613 2.56066 11.6871C2.27936 11.9129 1.89782 12.0398 1.5 12.0398ZM9 1.20398C9 1.52329 8.84196 1.82953 8.56066 2.05531C8.27936 2.2811 7.89782 2.40795 7.5 2.40795C7.10218 2.40795 6.72064 2.2811 6.43934 2.05531C6.15804 1.82953 6 1.52329 6 1.20398C6 0.884661 6.15804 0.578425 6.43934 0.352636C6.72064 0.126847 7.10218 0 7.5 0C7.89782 0 8.27936 0.126847 8.56066 0.352636C8.84196 0.578425 9 0.884661 9 1.20398ZM3 6.01988C3 6.33919 2.84196 6.64543 2.56066 6.87122C2.27936 7.09701 1.89782 7.22385 1.5 7.22385C1.10218 7.22385 0.720645 7.09701 0.43934 6.87122C0.158036 6.64543 0 6.33919 0 6.01988C0 5.70056 0.158036 5.39433 0.43934 5.16854C0.720645 4.94275 1.10218 4.8159 1.5 4.8159C1.89782 4.8159 2.27936 4.94275 2.56066 5.16854C2.84196 5.39433 3 5.70056 3 6.01988ZM1.5 2.40795C1.10218 2.40795 0.720645 2.2811 0.43934 2.05531C0.158036 1.82953 0 1.52329 0 1.20398C0 0.884661 0.158036 0.578425 0.43934 0.352636C0.720645 0.126847 1.10218 0 1.5 0C1.89782 0 2.27936 0.126847 2.56066 0.352636C2.84196 0.578425 3 0.884661 3 1.20398C3 1.52329 2.84196 1.82953 2.56066 2.05531C2.27936 2.2811 1.89782 2.40795 1.5 2.40795Z" fill="black" fill-opacity="0.85"/>
</svg>
