<svg width="26" height="26" viewBox="0 0 26 26" fill="none" xmlns="http://www.w3.org/2000/svg">
<g id="Icon Trash mit Rahmen">
<path id="Vector" d="M18.3333 11.0002L17.0033 18.5642C16.9491 18.8731 16.7877 19.153 16.5475 19.3546C16.3072 19.5563 16.0036 19.6669 15.69 19.6668H10.31C9.99636 19.6669 9.69275 19.5563 9.45255 19.3546C9.21235 19.153 9.05093 18.8731 8.99667 18.5642L7.66667 11.0002M19 9.00016H15.25M15.25 9.00016V7.66683C15.25 7.31321 15.1095 6.97407 14.8595 6.72402C14.6094 6.47397 14.2703 6.3335 13.9167 6.3335H12.0833C11.7297 6.3335 11.3906 6.47397 11.1405 6.72402C10.8905 6.97407 10.75 7.31321 10.75 7.66683V9.00016M15.25 9.00016H10.75M7 9.00016H10.75" stroke="#FD3493" stroke-width="1.5" stroke-linecap="round" stroke-linejoin="round"/>
<path id="Vector_2" d="M1 22.3333V3.66667C1 2.95942 1.28095 2.28115 1.78105 1.78105C2.28115 1.28095 2.95942 1 3.66667 1H22.3333C23.0406 1 23.7189 1.28095 24.219 1.78105C24.719 2.28115 25 2.95942 25 3.66667V22.3333C25 23.0406 24.719 23.7189 24.219 24.219C23.7189 24.719 23.0406 25 22.3333 25H3.66667C2.95942 25 2.28115 24.719 1.78105 24.219C1.28095 23.7189 1 23.0406 1 22.3333Z" stroke="#FD3493" stroke-width="1.5"/>
</g>
</svg>
