<svg width="24" height="24" viewBox="0 0 24 24" fill="none" xmlns="http://www.w3.org/2000/svg">
<g id="icon Edit flowsequence" clip-path="url(#clip0_1424_1309)">
<g id="Group">
<path id="Vector" d="M10.0492 10.6071L2.97915 17.6771C2.7932 17.8629 2.64568 18.0835 2.54503 18.3263C2.44438 18.569 2.39258 18.8293 2.39258 19.0921C2.39258 19.355 2.44438 19.6152 2.54503 19.858C2.64568 20.1008 2.7932 20.3214 2.97915 20.5071C3.35421 20.8821 3.86282 21.0927 4.39315 21.0927C4.92348 21.0927 5.4321 20.8821 5.80715 20.5071L12.8772 13.4351M17.1922 13.8001L21.0702 17.6781C21.4451 18.0532 21.6557 18.5618 21.6557 19.0921C21.6557 19.6225 21.4451 20.1311 21.0702 20.5061C20.6951 20.8811 20.1865 21.0917 19.6562 21.0917C19.1258 21.0917 18.6172 20.8811 18.2422 20.5061L12.0332 14.2981M6.73215 5.90413L4.60915 6.61013L2.48915 3.07513L3.90315 1.66113L7.43915 3.78213L6.73215 5.90413ZM6.73215 5.90413L9.56215 8.73413" stroke="white" stroke-opacity="0.8" stroke-width="1.5" stroke-linecap="round" stroke-linejoin="round"/>
<path id="Vector_2" d="M10.0487 10.607C9.2047 8.45396 9.3697 5.62896 11.1097 3.88896C12.8497 2.14896 16.0597 1.76796 17.8267 2.82896L14.7867 5.86896L14.5037 8.97996L17.6147 8.69796L20.6547 5.65696C21.7167 7.42496 21.3347 10.635 19.5947 12.374C17.8547 14.114 15.0307 14.279 12.8777 13.435" stroke="white" stroke-opacity="0.8" stroke-width="1.5" stroke-linecap="round" stroke-linejoin="round"/>
</g>
</g>
<defs>
<clipPath id="clip0_1424_1309">
<rect width="24" height="24" fill="white"/>
</clipPath>
</defs>
</svg>
