<svg width="24" height="24" viewBox="0 0 24 24" fill="none" xmlns="http://www.w3.org/2000/svg">
<g id="icon Completed flow sequence">
<g clip-path="url(#clip0_1416_1483)">
<g id="Group">
<path id="Vector" d="M11.6064 2.34188C11.7155 2.24705 11.8553 2.19482 11.9999 2.19482C12.1445 2.19482 12.2842 2.24705 12.3934 2.34188L14.3414 4.03388C14.402 4.08663 14.4727 4.12665 14.5492 4.15156C14.6256 4.17647 14.7063 4.18576 14.7864 4.17888L17.3584 3.95488C17.5024 3.94251 17.646 3.98254 17.7628 4.0676C17.8797 4.15267 17.9619 4.27705 17.9944 4.41788L18.5764 6.93188C18.5943 7.01044 18.628 7.08458 18.6752 7.14987C18.7224 7.21516 18.7824 7.27026 18.8514 7.31188L21.0634 8.64188C21.1872 8.71641 21.2799 8.8331 21.3245 8.97051C21.3692 9.10793 21.3627 9.25684 21.3064 9.38988L20.2984 11.7659C20.267 11.8399 20.2509 11.9195 20.2509 11.9999C20.2509 12.0803 20.267 12.1599 20.2984 12.2339L21.3064 14.6099C21.363 14.743 21.3696 14.8922 21.3249 15.0298C21.2803 15.1675 21.1874 15.2843 21.0634 15.3589L18.8514 16.6889C18.7825 16.7304 18.7226 16.7853 18.6754 16.8504C18.6281 16.9156 18.5945 16.9895 18.5764 17.0679L17.9944 19.5819C17.9619 19.7227 17.8797 19.8471 17.7628 19.9322C17.646 20.0172 17.5024 20.0572 17.3584 20.0449L14.7864 19.8209C14.7063 19.8139 14.6257 19.823 14.5493 19.8477C14.4728 19.8725 14.4021 19.9123 14.3414 19.9649L12.3924 21.6579C12.2832 21.7527 12.1435 21.8049 11.9989 21.8049C11.8543 21.8049 11.7145 21.7527 11.6054 21.6579L9.65737 19.9649C9.59662 19.9123 9.52592 19.8725 9.44948 19.8477C9.37304 19.823 9.29241 19.8139 9.21237 19.8209L6.64037 20.0449C6.49637 20.0572 6.35275 20.0172 6.23591 19.9322C6.11906 19.8471 6.03684 19.7227 6.00437 19.5819L5.42237 17.0679C5.40441 16.9893 5.37079 16.9152 5.32355 16.8499C5.2763 16.7846 5.21638 16.7295 5.14737 16.6879L2.93537 15.3579C2.8116 15.2834 2.71887 15.1667 2.67423 15.0292C2.62959 14.8918 2.63603 14.7429 2.69237 14.6099L3.70037 12.2339C3.73173 12.1599 3.74788 12.0803 3.74788 11.9999C3.74788 11.9195 3.73173 11.8399 3.70037 11.7659L2.69237 9.38988C2.63575 9.25672 2.62916 9.10758 2.67382 8.96994C2.71847 8.8323 2.81136 8.71544 2.93537 8.64088L5.14737 7.31088C5.21628 7.26937 5.27613 7.21442 5.32337 7.14932C5.37062 7.08421 5.40428 7.01026 5.42237 6.93188L6.00437 4.41788C6.03684 4.27705 6.11906 4.15267 6.23591 4.0676C6.35275 3.98254 6.49637 3.94251 6.64037 3.95488L9.21237 4.17888C9.29248 4.18576 9.37315 4.17647 9.44959 4.15156C9.52604 4.12665 9.5967 4.08663 9.65737 4.03388L11.6064 2.34188Z" stroke="white" stroke-opacity="0.8"/>
<path id="Vector_2" d="M9 13L11 15L16 10" stroke="white" stroke-opacity="0.8" stroke-linecap="round" stroke-linejoin="round"/>
</g>
</g>
</g>
<defs>
<clipPath id="clip0_1416_1483">
<rect width="24" height="24" rx="4" fill="white"/>
</clipPath>
</defs>
</svg>
