<svg width="26" height="26" viewBox="0 0 26 26" fill="none" xmlns="http://www.w3.org/2000/svg">
<g id="Group">
<path id="Vector" d="M1 22.3333V3.66667C1 2.95942 1.28095 2.28115 1.78105 1.78105C2.28115 1.28095 2.95942 1 3.66667 1H22.3333C23.0406 1 23.7189 1.28095 24.219 1.78105C24.719 2.28115 25 2.95942 25 3.66667V22.3333C25 23.0406 24.719 23.7189 24.219 24.219C23.7189 24.719 23.0406 25 22.3333 25H3.66667C2.95942 25 2.28115 24.719 1.78105 24.219C1.28095 23.7189 1 23.0406 1 22.3333Z" stroke="#FD3493" stroke-width="1.5"/>
<path id="Vector_2" d="M15.4793 15.467C15.9162 15.0448 16.2646 14.5398 16.5041 13.9815C16.7437 13.4232 16.8695 12.8227 16.8743 12.2152C16.8791 11.6077 16.7628 11.0053 16.5322 10.4432C16.3015 9.88118 15.9612 9.37073 15.531 8.94171C15.1009 8.51269 14.5895 8.17371 14.0268 7.94457C13.4641 7.71544 12.8614 7.60074 12.2539 7.60719C11.6464 7.61364 11.0463 7.7411 10.4886 7.98213C9.93095 8.22316 9.4269 8.57292 9.00593 9.01097C8.17591 9.87468 7.71801 11.0296 7.73073 12.2275C7.74344 13.4253 8.22575 14.5703 9.07391 15.4162C9.92208 16.2621 11.0684 16.7413 12.2662 16.7508C13.4641 16.7603 14.6178 16.2993 15.4793 15.467ZM15.4793 15.467L18.3379 18.3336" stroke="#FD3493" stroke-width="1.5" stroke-linecap="round" stroke-linejoin="round"/>
</g>
</svg>
