<svg width="21" height="20" viewBox="0 0 21 20" fill="none" xmlns="http://www.w3.org/2000/svg">
<g id="Frame" clip-path="url(#clip0_1424_1512)">
<g id="Group">
<path id="Vector" d="M17.1667 11.6667V2.5L8 4.16667V13.3333" stroke="white" stroke-opacity="0.8" stroke-width="1.5" stroke-linecap="round" stroke-linejoin="round"/>
<path id="Vector_2" d="M14.6654 15.8332H15.4987C15.9407 15.8332 16.3646 15.6576 16.6772 15.345C16.9898 15.0325 17.1654 14.6085 17.1654 14.1665V11.6665H14.6654C14.2233 11.6665 13.7994 11.8421 13.4869 12.1547C13.1743 12.4672 12.9987 12.8911 12.9987 13.3332V14.1665C12.9987 14.6085 13.1743 15.0325 13.4869 15.345C13.7994 15.6576 14.2233 15.8332 14.6654 15.8332ZM5.4987 17.4998H6.33203C6.77406 17.4998 7.19798 17.3242 7.51054 17.0117C7.8231 16.6991 7.9987 16.2752 7.9987 15.8332V13.3332H5.4987C5.05667 13.3332 4.63275 13.5088 4.32019 13.8213C4.00763 14.1339 3.83203 14.5578 3.83203 14.9998V15.8332C3.83203 16.2752 4.00763 16.6991 4.32019 17.0117C4.63275 17.3242 5.05667 17.4998 5.4987 17.4998Z" stroke="white" stroke-opacity="0.8" stroke-width="1.5" stroke-linecap="round" stroke-linejoin="round"/>
</g>
</g>
<defs>
<clipPath id="clip0_1424_1512">
<rect width="20" height="20" fill="white" transform="translate(0.5)"/>
</clipPath>
</defs>
</svg>
