<svg width="23" height="26" viewBox="0 0 23 26" fill="none" xmlns="http://www.w3.org/2000/svg">
<g id="Group">
<g id="Vector">
<path d="M21.998 4.25684V21.7451V4.25684Z" fill="white" fill-opacity="0.8"/>
<path d="M21.998 4.25684V21.7451" stroke="white" stroke-opacity="0.8" stroke-linecap="round" stroke-linejoin="round"/>
</g>
<path id="Vector_2" d="M2.69905 1.22602C2.54426 1.10378 2.35814 1.0276 2.16202 1.0062C1.9659 0.9848 1.76771 1.01905 1.59017 1.10502C1.41263 1.19099 1.26292 1.32521 1.1582 1.49229C1.05347 1.65938 0.997968 1.85256 0.998047 2.04972V23.952C0.998297 24.149 1.05404 24.342 1.1589 24.5088C1.26375 24.6756 1.41348 24.8096 1.59096 24.8954C1.76844 24.9811 1.96649 25.0152 2.16245 24.9938C2.35842 24.9723 2.54437 24.8961 2.69905 24.774L16.5783 13.8246C16.7028 13.7264 16.8035 13.6012 16.8727 13.4586C16.9419 13.3159 16.9778 13.1594 16.9778 13.0009C16.9778 12.8423 16.9419 12.6859 16.8727 12.5432C16.8035 12.4005 16.7028 12.2754 16.5783 12.1772L2.69905 1.22602Z" fill="white" fill-opacity="0.8" stroke="white" stroke-opacity="0.8" stroke-linecap="round" stroke-linejoin="round"/>
</g>
</svg>
