<svg width="23" height="26" viewBox="0 0 23 26" fill="none" xmlns="http://www.w3.org/2000/svg">
<path id="icon Pause flow sequence" d="M0.998047 23.9714V2.02857C0.998047 1.75578 1.10867 1.49416 1.30558 1.30126C1.5025 1.10837 1.76957 1 2.04805 1H6.94805C7.22652 1 7.4936 1.10837 7.69051 1.30126C7.88742 1.49416 7.99805 1.75578 7.99805 2.02857V23.9714C7.99805 24.2442 7.88742 24.5058 7.69051 24.6987C7.4936 24.8916 7.22652 25 6.94805 25H2.04805C1.76957 25 1.5025 24.8916 1.30558 24.6987C1.10867 24.5058 0.998047 24.2442 0.998047 23.9714ZM14.998 23.9714V2.02857C14.998 1.75578 15.1087 1.49416 15.3056 1.30126C15.5025 1.10837 15.7696 1 16.048 1H20.948C21.2265 1 21.4936 1.10837 21.6905 1.30126C21.8874 1.49416 21.998 1.75578 21.998 2.02857V23.9714C21.998 24.2442 21.8874 24.5058 21.6905 24.6987C21.4936 24.8916 21.2265 25 20.948 25H16.048C15.7696 25 15.5025 24.8916 15.3056 24.6987C15.1087 24.5058 14.998 24.2442 14.998 23.9714Z" fill="white" fill-opacity="0.8" stroke="white" stroke-opacity="0.8" stroke-width="0.75"/>
</svg>
