<svg width="23" height="26" viewBox="0 0 23 26" fill="none" xmlns="http://www.w3.org/2000/svg">
<g id="Group">
<g id="Vector">
<path d="M1 4.25684V21.7451V4.25684Z" fill="white" fill-opacity="0.8"/>
<path d="M1 4.25684V21.7451" stroke="white" stroke-opacity="0.8" stroke-linecap="round" stroke-linejoin="round"/>
</g>
<path id="Vector_2" d="M20.2964 1.22602C20.4511 1.10378 20.6373 1.0276 20.8334 1.0062C21.0295 0.9848 21.2277 1.01905 21.4052 1.10502C21.5828 1.19099 21.7325 1.32521 21.8372 1.49229C21.9419 1.65938 21.9974 1.85256 21.9974 2.04972V23.952C21.9971 24.149 21.9414 24.342 21.8365 24.5088C21.7317 24.6756 21.5819 24.8096 21.4044 24.8954C21.227 24.9811 21.0289 25.0152 20.833 24.9938C20.637 24.9723 20.451 24.8961 20.2964 24.774L6.41711 13.8246C6.29257 13.7264 6.19192 13.6012 6.12273 13.4586C6.05353 13.3159 6.01758 13.1594 6.01758 13.0009C6.01758 12.8423 6.05353 12.6859 6.12273 12.5432C6.19192 12.4005 6.29257 12.2754 6.41711 12.1772L20.2964 1.22602Z" fill="white" fill-opacity="0.8" stroke="white" stroke-opacity="0.8" stroke-linecap="round" stroke-linejoin="round"/>
</g>
</svg>
