<svg width="23" height="23" viewBox="0 0 23 23" fill="none" xmlns="http://www.w3.org/2000/svg">
<path id="icon Restart flow sequence" d="M19.7257 0.0695989C19.9058 0.138722 20.0598 0.255787 20.1681 0.405986C20.2764 0.556184 20.3342 0.732769 20.3342 0.913406V6.07974C20.3342 6.32194 20.2303 6.55422 20.0455 6.72548C19.8606 6.89674 19.6099 6.99295 19.3485 6.99295H13.7719C13.5771 6.99279 13.3867 6.93915 13.2248 6.83879C13.0628 6.73844 12.9366 6.59587 12.8621 6.4291C12.7876 6.26233 12.768 6.07884 12.806 5.9018C12.844 5.72476 12.9377 5.56212 13.0754 5.43441L15.1809 3.48135C13.2468 2.73103 11.0997 2.59266 9.07213 3.0877C7.04459 3.58273 5.24992 4.68352 3.96624 6.21946C2.68257 7.7554 1.98157 9.64072 1.97191 11.5832C1.96224 13.5258 2.64444 15.417 3.91277 16.9638C5.18111 18.5107 6.96475 19.6267 8.98727 20.1391C11.0098 20.6514 13.1582 20.5314 15.0997 19.7976C17.0411 19.0638 18.667 17.7573 19.7256 16.0805C20.7841 14.4037 21.2161 12.4502 20.9545 10.5228C20.9274 10.2851 21.002 10.047 21.1623 9.85964C21.3226 9.67231 21.5558 9.55068 21.8119 9.52087C22.0679 9.49106 22.3263 9.55546 22.5317 9.70022C22.737 9.84498 22.8729 10.0586 22.9102 10.2951C23.2301 12.6526 22.6902 15.0415 21.3763 17.0821C20.0624 19.1227 18.0499 20.6978 15.6588 21.5571C13.2677 22.4164 10.6351 22.5105 8.17966 21.8245C5.72418 21.1384 3.5867 19.7116 2.107 17.7709C0.627307 15.8302 -0.109674 13.4869 0.0132151 11.1136C0.136104 8.74024 1.11181 6.47308 2.78523 4.67248C4.45864 2.87189 6.73373 1.64121 9.24881 1.17608C11.7639 0.710955 14.3746 1.03808 16.666 2.10545L18.6506 0.266853C18.7885 0.13934 18.9641 0.0525484 19.1552 0.0174404C19.3463 -0.0176675 19.5457 0.000482672 19.7257 0.0695989Z" fill="white" fill-opacity="0.8"/>
</svg>
