<svg width="23" height="22" viewBox="0 0 23 22" fill="none" xmlns="http://www.w3.org/2000/svg">
<g id="Group">
<path id="Vector" d="M9.27648 7.66634H4.83203M4.83203 4.33301H8.16536M18.1654 17.6663L13.1654 14.333L10.3876 16.5552L4.83203 12.1108M15.3876 9.88856C14.6509 9.88856 13.9443 9.59591 13.4234 9.07497C12.9025 8.55404 12.6098 7.8475 12.6098 7.11079C12.6098 6.37407 12.9025 5.66753 13.4234 5.1466C13.9443 4.62567 14.6509 4.33301 15.3876 4.33301C16.1243 4.33301 16.8308 4.62567 17.3518 5.1466C17.8727 5.66753 18.1654 6.37407 18.1654 7.11079C18.1654 7.8475 17.8727 8.55404 17.3518 9.07497C16.8308 9.59591 16.1243 9.88856 15.3876 9.88856Z" stroke="white" stroke-opacity="0.8" stroke-width="1.5" stroke-linecap="round" stroke-linejoin="round"/>
<path id="Vector_2" d="M1.5 20.3333V1.66667C1.5 1.48986 1.57024 1.32029 1.69526 1.19526C1.82029 1.07024 1.98986 1 2.16667 1H20.8333C21.0101 1 21.1797 1.07024 21.3047 1.19526C21.4298 1.32029 21.5 1.48986 21.5 1.66667V20.3333C21.5 20.5101 21.4298 20.6797 21.3047 20.8047C21.1797 20.9298 21.0101 21 20.8333 21H2.16667C1.98986 21 1.82029 20.9298 1.69526 20.8047C1.57024 20.6797 1.5 20.5101 1.5 20.3333Z" stroke="white" stroke-opacity="0.8" stroke-width="1.5"/>
</g>
</svg>
