<svg width="33" height="33" viewBox="0 0 33 33" fill="none" xmlns="http://www.w3.org/2000/svg">
<g id="Icon USER" clip-path="url(#clip0_1808_780)">
<g id="Group">
<path id="Vector" d="M16.5 16.5C17.9587 16.5 19.3576 15.9205 20.3891 14.8891C21.4205 13.8576 22 12.4587 22 11C22 9.54131 21.4205 8.14236 20.3891 7.11091C19.3576 6.07946 17.9587 5.5 16.5 5.5C15.0413 5.5 13.6424 6.07946 12.6109 7.11091C11.5795 8.14236 11 9.54131 11 11C11 12.4587 11.5795 13.8576 12.6109 14.8891C13.6424 15.9205 15.0413 16.5 16.5 16.5Z" stroke="#E7E7E7" stroke-width="2" stroke-linecap="round" stroke-linejoin="round"/>
<path id="Vector_2" d="M6.875 27.5V26.125C6.87467 24.5011 7.28521 22.9035 8.06841 21.481C8.85162 20.0584 9.98202 18.8571 11.3544 17.989C12.7267 17.1208 14.2965 16.614 15.9174 16.5157C17.5383 16.4174 19.1578 16.7308 20.625 17.4268M28.875 30.25L30.25 22L25.4375 24.475L23.375 22L21.3125 24.475L16.5 22L17.875 30.25H28.875Z" stroke="#E7E7E7" stroke-width="2" stroke-linecap="round" stroke-linejoin="round"/>
</g>
</g>
<defs>
<clipPath id="clip0_1808_780">
<rect width="33" height="33" fill="white"/>
</clipPath>
</defs>
</svg>
